PathFileType	4	(X/Y/Z)	pose_F01_0-87.trc
DataRate	CameraRate	NumFrames	NumMarkers	Units	OrigDataRate	OrigDataStartFrame	OrigNumFrames
30	30	4	21	m	30	0	87
Frame#	Time	CHip			RHip			RKnee			RAnkle			RBigToe			RSmallToe			RHeel			LHip			LKnee			LAnkle			LBigToe			LSmallToe			LHeel			Neck			Nose			RShoulder			RElbow			RWrist			LShoulder			LElbow			LWrist			
		X1	Y1	Z1	X2	Y2	Z2	X3	Y3	Z3	X4	Y4	Z4	X5	Y5	Z5	X6	Y6	Z6	X7	Y7	Z7	X8	Y8	Z8	X9	Y9	Z9	X10	Y10	Z10	X11	Y11	Z11	X12	Y12	Z12	X13	Y13	Z13	X14	Y14	Z14	X15	Y15	Z15	X16	Y16	Z16	X17	Y17	Z17	X18	Y18	Z18	X19	Y19	Z19	X20	Y20	Z20	X21	Y21	Z21	
0	0.0	-0.2198410486485353	1.8757604616789734	-0.551391616558532	-0.2269763459017085	1.8724691308187495	-0.4828213164876636	-0.23965617259096786	1.7132351272709527	-0.4346783538102504	-0.24173976550029697	1.5643936931721858	-0.3966275684718915	-0.21832646736303069	1.5235550097182793	-0.4045018464959269	-0.22560986166970215	1.524565335429583	-0.36738562794923724	-0.2527137726494412	1.5541294849693201	-0.39349573759827605	-0.2084089361347019	1.8775206588757374	-0.6272765329200236	-0.2230668474681787	1.7228647432378714	-0.6166753319904643	-0.231892285656482	1.583362911492535	-0.6174244273097066	-0.19439736105847047	1.5422656632795209	-0.7030177735029627	-0.2005420305327029	1.554977440452482	-0.710774407001991	-0.23028181717662932	1.5650324501275994	-0.5959912029741443	-0.22396919474415358	2.0546964784528767	-0.5535448271956668	-0.19340242280811165	2.1278830763375876	-0.5893541636022096	-0.23720086443057092	2.0530133504291164	-0.45877486533684464	-0.24170518553541975	1.954743488723243	-0.421492126175017	-0.2383329489004311	1.8678189240568184	-0.39829091926280785	-0.2099313549641513	2.0606168661452196	-0.6559197245386834	-1.3699087072389236	1.8765384826344607	0.5326046833214174	-1.2768677322747473	1.8119333872358354	0.40751494064986005
1	0.03333333333333333	-0.22015021938196003	1.877235930031027	-0.5518451570866857	-0.22708875044568358	1.8738951070369088	-0.4831870495856064	-0.2400954753364329	1.7170810167957486	-0.4347596329839201	-0.24142962754624525	1.5628264268308942	-0.39696861080893736	-0.21748221497448064	1.5216757170487967	-0.40507435547361725	-0.22557249611447402	1.5232357711629763	-0.3672239498672561	-0.2505730400948011	1.553291641269481	-0.3956736045013581	-0.20574462424813897	1.8792033126565186	-0.6267714758735821	-0.22243397599812528	1.7251266644390293	-0.6135354540362143	-0.23128491278301144	1.5815645111832215	-0.6178496674335955	-0.19315371944553733	1.54075464011346	-0.7002846736809965	-0.1973377545255744	1.5545234745120446	-0.7101458620409731	-0.23028181717662932	1.5650324501275994	-0.5959912029741443	-0.22397932251945762	2.05604214977358	-0.5540781145136087	-0.19426212915957056	2.1279970450420573	-0.5922279025596102	-0.23718910641547283	2.054517663196105	-0.4594148789495983	-0.24152922482001013	1.958436959503454	-0.42201390701290614	-0.23789748453961246	1.8736661228757756	-0.39917667359088677	-0.20991562172280565	2.059355253599143	-0.6554411467439326	-1.3699087072389236	1.8765384826344607	0.5326046833214174	-1.2768677322747473	1.8119333872358354	0.40751494064986005
2	0.06666666666666667	-0.22045939011538476	1.8787113983830808	-0.5522986976148394	-0.22720115498965865	1.875321083255068	-0.4835527826835492	-0.24053477808189797	1.7209269063205446	-0.43484091215758985	-0.24111948959219354	1.5612591604896027	-0.3973096531459832	-0.2166379625859306	1.519796424379314	-0.4056468644513076	-0.2255351305592459	1.5219062068963696	-0.36706227178527495	-0.24843230754016093	1.552453797569642	-0.3978514714044401	-0.20308031236157603	1.8808859664372999	-0.6262664188271405	-0.22180110452807186	1.7273885856401872	-0.6103955760819644	-0.23067753990954085	1.579766110873908	-0.6182749075574845	-0.1919100778326042	1.539243616947399	-0.6975515738590302	-0.1941334785184459	1.5540695085716072	-0.7095173170799551	-0.23028181717662932	1.5650324501275994	-0.5959912029741443	-0.22398945029476167	2.057387821094283	-0.5546114018315506	-0.19512183551102946	2.128111013746527	-0.5951016415170108	-0.23717734840037474	2.0560219759630933	-0.460054892562352	-0.2413532641046005	1.962130430283665	-0.42253568785079526	-0.2374620201787938	1.8795133216947328	-0.4000624279189657	-0.20989988848146	2.0580936410530666	-0.6549625689491818	-1.3699087072389236	1.8765384826344607	0.5326046833214174	-1.2768677322747473	1.8119333872358354	0.40751494064986005
3	0.1	-0.2213595389409284	1.881310083218712	-0.5559280978003043	-0.22635446258041794	1.8769519550738416	-0.48912440908678345	-0.24051990741418106	1.7203517666389303	-0.4347365108608419	-0.24331197919193395	1.5624347370022453	-0.3947920156342318	-0.21579371019738053	1.5179171317098314	-0.406219373428998	-0.22549776500401775	1.5205766426297629	-0.3669005937032938	-0.2526278740079172	1.5511800776070335	-0.3929407534967258	-0.20602342721531977	1.8834013944286676	-0.6276270763110637	-0.2215100242820154	1.7250973902059341	-0.6104544077491665	-0.23007016703607025	1.5779677105645944	-0.6187001476813734	-0.19296829726880851	1.539716914642681	-0.7006720154845107	-0.1946582753689003	1.5545481031397237	-0.7108940025655865	-0.23028181717662932	1.5650324501275994	-0.5959912029741443	-0.2268474319016446	2.0561489683299032	-0.5549898321780808	-0.19507693476775861	2.1291438305537675	-0.5949057963374381	-0.2352707468448479	2.054722081467734	-0.4617314840653418	-0.2416009967696731	1.9599427370284375	-0.4225963373659871	-0.23643862841465377	1.8755199758628986	-0.4016738751070462	-0.21288706906826596	2.0595500148915638	-0.656125468337342	-1.3699087072389236	1.8765384826344607	0.5326046833214174	-1.2768677322747473	1.8119333872358354	0.40751494064986005
